<?xml version="1.0" encoding="iso-8859-1"?>
<!-- Generator: Adobe Illustrator 19.0.0, SVG Export Plug-In . SVG Version: 6.00 Build 0)  -->
<svg version="1.1" id="Capa_1" xmlns="http://www.w3.org/2000/svg" xmlns:xlink="http://www.w3.org/1999/xlink" x="0px" y="0px"
	 viewBox="0 0 503.893 503.893" style="enable-background:new 0 0 503.893 503.893;" xml:space="preserve">
<g>
	<g>
		<path d="M498.978,28.66l-15.825-15.828l-1.978-1.979l-0.003-0.002l-5.931-5.932c-3.14-3.159-7.414-4.93-11.869-4.918h-0.017
			c-4.449-0.011-8.718,1.76-11.852,4.918l-11.877,11.869c-4.288,4.194-5.936,10.398-4.294,16.167l-72.861,72.861
			c-45.05,45.054-76.078,62.065-87.143,67.238l-1.873-1.873c-9.903-9.614-25.649-9.632-35.574-0.041L12.364,396.652
			c-7.908,7.841-12.358,18.516-12.361,29.652C0,437.44,4.443,448.117,12.347,455.963l35.566,35.566
			c7.84,7.91,18.514,12.361,29.651,12.365c11.137,0.004,21.814-4.44,29.66-12.344l10.416-10.416
			c11.251,17.051,31.692,25.611,51.736,21.664c20.044-3.946,35.714-19.616,39.662-39.659c3.948-20.044-4.611-40.485-21.661-51.737
			l145.348-145.344c4.771-4.688,7.461-11.094,7.467-17.782c0.006-6.688-2.672-13.099-7.434-17.796l-1.934-1.934
			c5.09-11.007,21.873-41.731,67.262-87.123l72.872-72.871c5.763,1.644,11.963,0,16.153-4.284l11.869-11.869
			C505.528,45.84,505.528,35.217,498.978,28.66z M280.424,201.889l21.587,21.587l-75.558,53.967L280.424,201.889z M159.626,486.959
			c-18.534-0.02-33.554-15.04-33.574-33.574c0.032-5.974,1.675-11.83,4.757-16.948l45.765,45.765
			C171.456,485.284,165.601,486.927,159.626,486.959z M193.2,453.385c-0.032,5.974-1.675,11.829-4.757,16.948l-45.765-45.765
			c5.118-3.082,10.974-4.725,16.948-4.757C178.16,419.831,193.18,434.851,193.2,453.385z M320.888,254.152L320.888,254.152
			l-150.149,150.15c-16.861-3.876-34.529,1.199-46.763,13.432c-12.234,12.233-17.31,29.901-13.435,46.762l-15.21,15.206
			c-9.912,9.568-25.624,9.559-35.525-0.021L24.2,444.073c-4.745-4.696-7.413-11.095-7.41-17.77
			c0.003-6.675,2.677-13.072,7.426-17.763L249.79,182.967c3.266-3.214,8.511-3.196,11.754,0.041l6.847,6.847l-84.462,118.244
			L65.716,426.307c-2.12,2.12-2.948,5.21-2.172,8.107c0.776,2.896,3.038,5.158,5.934,5.934c2.896,0.776,5.986-0.052,8.107-2.172
			l118.213-118.209l118.247-84.457l6.875,6.875c1.593,1.545,2.49,3.671,2.484,5.89C323.398,250.495,322.49,252.616,320.888,254.152z
			 M318.327,215.98l-30.409-30.406c24.805-13.843,47.732-30.81,68.22-50.485l12.672,12.669
			C349.133,168.246,332.167,191.174,318.327,215.98z M386.216,129.553c-2.054,2.054-3.919,4.011-5.864,6.01l-12.021-12.019
			c1.998-1.944,3.954-3.807,6.008-5.86l71.222-71.222l11.875,11.871L386.216,129.553z M475.249,52.406l-0.008-0.008L451.495,28.66
			l11.877-11.873l7.912,7.914l3.956,3.959l5.934,5.934l0.003,0.002l5.931,5.932L475.249,52.406z"/>
	</g>
</g>
<g>
</g>
<g>
</g>
<g>
</g>
<g>
</g>
<g>
</g>
<g>
</g>
<g>
</g>
<g>
</g>
<g>
</g>
<g>
</g>
<g>
</g>
<g>
</g>
<g>
</g>
<g>
</g>
<g>
</g>
</svg>
